<svg xmlns="http://www.w3.org/2000/svg" width="131" height="131" fill="#060623" stroke="#060623" stroke-width="3" xmlns:v="https://vecta.io/nano"><path opacity="0" d="M1.5 129.5V1.5h128v128z"/><path d="M101.973 62.334L76.4 30.234c-1.861-2.305-5.239-2.664-7.543-.803s-2.664 5.239-.803 7.543l22.844 28.73-23.968 28.73a5.34 5.34 0 0 0 8.239 6.795l26.75-32.1a5.35 5.35 0 0 0 .054-6.795zM38.95 30.229a5.47 5.47 0 0 0-8.614 6.741L53.448 65.7 29.48 94.376a5.36 5.36 0 0 0 .733 7.499 5.36 5.36 0 0 0 7.506-.651l26.75-32.1a5.35 5.35 0 0 0 0-6.795z"/></svg>