<svg xmlns="http://www.w3.org/2000/svg" width="32.834" height="32.834" viewBox="0 0 32.834 32.834">
  <path id="facebook-svgrepo-com_2_" data-name="facebook-svgrepo-com (2)" d="M23.6,0H9.235A9.2,9.2,0,0,0,0,9.235V23.6a9.2,9.2,0,0,0,9.235,9.235h7.182V20.521h-4.1A.969.969,0,0,1,11.287,19.5V16.417a.969.969,0,0,1,1.026-1.026h4.1V12.313c0-3.386,1.744-6.156,5.13-6.156h4.1a.969.969,0,0,1,1.026,1.026v3.078a.969.969,0,0,1-1.026,1.026h-3.9a.221.221,0,0,0-.205.205v3.9h5.13a1.267,1.267,0,0,1,.821.41.964.964,0,0,1,.1.923L25.549,19.8a.878.878,0,0,1-.923.718H21.547V32.834H23.6c5.13,0,9.235-9.235,9.235-9.235V9.235A9.2,9.2,0,0,0,23.6,0Z" fill="#060623"/>
</svg>
