<svg xmlns="http://www.w3.org/2000/svg" width="34" height="32" viewBox="0 0 34 32">
  <g id="Group_29" data-name="Group 29" transform="translate(3610 -3109)">
    <g id="Rectangle_209" data-name="Rectangle 209" transform="translate(-3610 3109)" fill="#060623" stroke="#060623" stroke-width="1">
      <rect width="34" height="32" rx="9" stroke="none"/>
      <rect x="0.5" y="0.5" width="33" height="31" rx="8.5" fill="none"/>
    </g>
    <g id="Polygon_28" data-name="Polygon 28" transform="translate(-3584.5 3116.5) rotate(90)" fill="#f7b32b">
      <path d="M 13.30272960662842 12.50000381469727 L 3.697259902954102 12.50000381469727 C 3.137480020523071 12.50000381469727 2.644269943237305 12.20605373382568 2.377929925918579 11.71369361877441 C 2.111589908599854 11.22132396697998 2.135469913482666 10.64765357971191 2.441819906234741 10.179123878479 L 7.244540214538574 2.833763599395752 C 7.526740074157715 2.402173519134521 7.984340190887451 2.154643535614014 8.5 2.154643535614014 C 9.015660285949707 2.154643535614014 9.473259925842285 2.402173519134521 9.755450248718262 2.833763599395752 L 14.55819034576416 10.179123878479 C 14.86452960968018 10.64765357971191 14.88840961456299 11.2213134765625 14.6220703125 11.71368312835693 C 14.3557300567627 12.20605373382568 13.86252021789551 12.50000381469727 13.30272960662842 12.50000381469727 Z" stroke="none"/>
      <path d="M 8.5 2.654633522033691 C 8.156220436096191 2.654633522033691 7.851160049438477 2.819653511047363 7.663029670715332 3.107393264770508 L 2.860300064086914 10.4527530670166 C 2.565919876098633 10.90297317504883 2.732439994812012 11.31818389892578 2.817700386047363 11.47579383850098 C 2.902959823608398 11.63340377807617 3.159339904785156 12.00000381469727 3.697259902954102 12.00000381469727 L 13.30273056030273 12.00000381469727 C 13.84065055847168 12.00000381469727 14.09702968597412 11.63340377807617 14.18229007720947 11.47579383850098 C 14.26754951477051 11.3181734085083 14.43408012390137 10.90297317504883 14.13969993591309 10.4527530670166 L 9.336969375610352 3.107393264770508 C 9.148839950561523 2.819663047790527 8.843770027160645 2.654633522033691 8.5 2.654633522033691 M 8.5 1.654638290405273 C 9.139617919921875 1.654638290405273 9.779234886169434 1.956473350524902 10.17394065856934 2.56014347076416 L 14.97667026519775 9.90550422668457 C 15.84642028808594 11.23570346832275 14.89204978942871 13.00000381469727 13.30273056030273 13.00000381469727 L 3.697259902954102 13.00000381469727 C 2.107950210571289 13.00000381469727 1.153570175170898 11.23571395874023 2.023329734802246 9.90550422668457 L 6.82606029510498 2.56014347076416 C 7.220765113830566 1.956473350524902 7.860382080078125 1.654638290405273 8.5 1.654638290405273 Z" stroke="none" fill="#f7b32b"/>
    </g>
  </g>
</svg>
