<svg xmlns="http://www.w3.org/2000/svg" width="2000" height="1010" xmlns:v="https://vecta.io/nano"><g transform="translate(-1.212 -.803)"><svg viewBox="0 0 396 200" preserveAspectRatio="xMidYMid meet" height="1010" width="2000"><g transform="translate(.24 .159)"><svg height="199.682" width="395.52"><svg height="199.682" width="395.52"><g transform="translate(0 143.169)"><svg height="56.513" width="395.52"><svg height="56.513" width="395.52"><svg height="56.513" width="395.52"><svg width="395.52" viewBox="2 -38.4 273.63 39.1" height="56.513"><path d="M42.55-35.4h0v1q-1.7.05-2.55.38-.85.32-1.12 1.19-.28.88-.28 2.73h0v24.8q0 1.8.28 2.7.27.9 1.12 1.2.85.3 2.55.4h0v1q-1.25-.1-3.1-.13-1.85-.02-3.75-.02h0q-2.1 0-3.95.02Q29.9-.1 28.8 0h0v-1q1.7-.1 2.58-.4.87-.3 1.17-1.2.3-.9.3-2.7h0v-27.35l.25.1L20.8.2H20L7.1-32.2v25.6q0 2.1.3 3.27.3 1.18 1.3 1.68 1 .5 3.05.65h0v1q-.95-.1-2.42-.13-1.48-.02-2.78-.02h0q-1.25 0-2.5.02Q2.8-.1 2 0h0v-1q1.65-.15 2.5-.63.85-.47 1.15-1.62.3-1.15.3-3.15h0v-23.7q0-1.85-.3-2.73-.3-.87-1.15-1.19-.85-.33-2.5-.38h0v-1q.8.05 2.05.1 1.25.05 2.5.05h0q1.45 0 2.92-.05 1.48-.05 2.53-.1h0L23.05-7l-.95.65 10.85-28.9q.65 0 1.35 0 .7 0 1.4 0h0q1.9 0 3.75-.05 1.85-.05 3.1-.1zm9.3-3h0q1.55 0 2.6.97 1.05.98 1.05 2.43h0q0 1.45-1.05 2.42-1.05.98-2.6.98h0q-1.55 0-2.6-.98-1.05-.97-1.05-2.42h0q0-1.45 1.05-2.43 1.05-.97 2.6-.97zm3 12.05h0v21.7q0 2.1.82 2.85.83.75 2.78.75h0V0q-.85-.05-2.63-.13Q54.05-.2 52.2-.2h0q-1.75 0-3.6.07-1.85.08-2.75.13h0v-1.05q1.95 0 2.77-.75.83-.75.83-2.85h0v-15.7q0-2.25-.75-3.33-.75-1.07-2.85-1.07h0v-1.05q1.6.15 3.1.15h0q1.7 0 3.17-.18 1.48-.17 2.73-.52zm15.8.55h0v1.05q-.95 0-1.56.45-.59.45-.09 1.25h0l13.3 19.5q.75 1.15 1.42 1.72.68.58 1.58.78h0V0q-.6-.05-1.78-.13-1.18-.07-2.37-.07h0q-1.65 0-3.45.07-1.8.08-2.65.13h0v-1.05q1 0 1.6-.48.6-.47.05-1.22h0l-13.3-19.5q-.95-1.35-1.53-1.88-.57-.52-1.47-.62h0v-1.05q.65.05 1.9.12 1.25.08 2.45.08h0q1.65 0 3.37-.08 1.72-.07 2.53-.12zM64.9-4.6l6.3-8.1q0 0 .2.65.19.65.19.65h0l-3.44 4.45Q66.8-5.2 66.7-3.88q-.11 1.33.89 2.03 1 .7 2.75.85h0v1q-.89-.05-2.04-.08-1.15-.02-2.25-.05-1.1-.02-1.9-.02h0q-2.15 0-3.7.15h0v-1q1-.2 2.02-1.02 1.03-.83 2.43-2.58h0zm19.25-21.2h0v1q-1 .2-2.13 1.1-1.12.9-2.32 2.55h0l-5.7 7.6q0 0-.18-.63-.17-.62-.17-.62h0l3.44-4.75q1.75-2.45 1.53-3.75-.22-1.3-2.87-1.5h0v-1q1.34.05 2.42.1 1.08.05 2.28.05h0q2.2 0 3.7-.15zm12.74 0h0v1.05q-.95 0-1.55.45-.6.45-.1 1.25h0l13.3 19.5q.75 1.15 1.43 1.72.67.58 1.57.78h0V0q-.6-.05-1.77-.13-1.18-.07-2.38-.07h0q-1.65 0-3.45.07-1.8.08-2.65.13h0v-1.05q1 0 1.6-.48.6-.47.05-1.22h0l-13.3-19.5q-.95-1.35-1.52-1.88-.58-.52-1.48-.62h0v-1.05q.65.05 1.9.12 1.25.08 2.45.08h0q1.65 0 3.38-.08 1.72-.07 2.52-.12zM91.14-4.6l6.3-8.1q0 0 .2.65.2.65.2.65h0l-3.45 4.45q-1.35 1.75-1.45 3.07-.1 1.33.9 2.03 1 .7 2.75.85h0v1q-.9-.05-2.05-.08-1.15-.02-2.25-.05-1.1-.02-1.9-.02h0q-2.15 0-3.7.15h0v-1q1-.2 2.03-1.02 1.02-.83 2.42-2.58h0zm19.25-21.2h0v1q-1 .2-2.12 1.1-1.13.9-2.33 2.55h0l-5.7 7.6q0 0-.17-.63-.18-.62-.18-.62h0l3.45-4.75q1.75-2.45 1.53-3.75-.23-1.3-2.88-1.5h0v-1q1.35.05 2.43.1 1.07.05 2.27.05h0q2.2 0 3.7-.15zm14.75-.7h0q1.7 0 3.25.42 1.55.43 2.7 1.18h0q1.2.75 1.83 1.8.62 1.05.62 2.3h0q0 1.5-.85 2.35-.85.85-2.2.85h0q-1.35 0-2.25-.75-.9-.75-.9-2.15h0q0-1.3.75-2.13.75-.82 1.75-1.07h0q-.45-.75-1.57-1.28-1.13-.52-2.43-.52h0q-1.35 0-2.57.7-1.23.7-2.18 2.15-.95 1.45-1.53 3.75-.57 2.3-.57 5.55h0q0 4.2.98 6.67.97 2.48 2.57 3.53 1.6 1.05 3.45 1.05h0q1.75 0 3.7-1.03 1.95-1.02 3.3-3.77h0l.95.35q-.55 1.65-1.72 3.35-1.18 1.7-3.08 2.8-1.9 1.1-4.65 1.1h0q-3.15 0-5.7-1.55-2.55-1.55-4.05-4.53-1.5-2.97-1.5-7.27h0q0-4.2 1.53-7.33 1.52-3.12 4.22-4.82 2.7-1.7 6.15-1.7zm17.75-11.9h0q1.55 0 2.6.97 1.05.98 1.05 2.43h0q0 1.45-1.05 2.42-1.05.98-2.6.98h0q-1.55 0-2.6-.98-1.05-.97-1.05-2.42h0q0-1.45 1.05-2.43 1.05-.97 2.6-.97zm3 12.05h0v21.7q0 2.1.82 2.85.83.75 2.78.75h0V0q-.85-.05-2.63-.13-1.77-.07-3.62-.07h0q-1.75 0-3.6.07-1.85.08-2.75.13h0v-1.05q1.95 0 2.77-.75.83-.75.83-2.85h0v-15.7q0-2.25-.75-3.33-.75-1.07-2.85-1.07h0v-1.05q1.6.15 3.1.15h0q1.7 0 3.17-.18 1.48-.17 2.73-.52zm23.4-.15h0q2 0 3.27.52 1.28.53 2.13 1.43h0q.9.95 1.27 2.45.38 1.5.38 4.05h0v13.4q0 2.1.82 2.85.83.75 2.78.75h0V0q-.85-.05-2.65-.13-1.8-.07-3.55-.07h0q-1.7 0-3.38.07-1.67.08-2.52.13h0v-1.05q1.7 0 2.4-.75.7-.75.7-2.85h0v-14.8q0-1.45-.25-2.63-.25-1.17-1.05-1.9-.8-.72-2.4-.72h0q-2.8 0-4.58 2.3-1.77 2.3-1.77 5.7h0v12.05q0 2.1.72 2.85.73.75 2.38.75h0V0q-.8-.05-2.43-.13-1.62-.07-3.37-.07h0q-1.7 0-3.55.07-1.85.08-2.75.13h0v-1.05q1.95 0 2.77-.75.83-.75.83-2.85h0v-15.7q0-2.25-.75-3.33-.75-1.07-2.85-1.07h0v-1.05q1.6.15 3.1.15h0q1.7 0 3.17-.18 1.48-.17 2.73-.52h0v5.45q1.3-3.1 3.57-4.35 2.28-1.25 4.83-1.25zm25.14 0h0q4.4 0 6.9 2.65 2.5 2.65 2.5 8.4h0-17.25l-.1-.95h12.05q.05-2.45-.4-4.53-.45-2.07-1.4-3.32-.95-1.25-2.5-1.25h0q-2.15 0-3.72 2.27-1.58 2.28-1.93 7.28h0l.15.25q-.05.7-.1 1.52-.05.83-.05 1.63h0q0 3.45 1.05 5.8 1.05 2.35 2.75 3.52 1.7 1.18 3.45 1.18h0q2 0 3.88-1 1.87-1 3.22-3.7h0l1 .4q-.6 1.7-1.85 3.35-1.25 1.65-3.2 2.67Q196.93.7 194.33.7h0q-3.5 0-6.1-1.58-2.6-1.57-4-4.52-1.4-2.95-1.4-7h0q0-4.45 1.45-7.6 1.45-3.15 4.08-4.83 2.62-1.67 6.07-1.67zm29.8 0h0q1.9 0 3.2.52 1.3.53 2.1 1.43h0q.9.95 1.25 2.52.35 1.58.35 3.98h0v13.4q0 2.1.8 2.85.8.75 2.7.75h0V0q-.85-.05-2.62-.13-1.78-.07-3.48-.07h0q-1.7 0-3.32.07-1.63.08-2.48.13h0v-1.05q1.65 0 2.33-.75.67-.75.67-2.85h0v-14.8q0-1.45-.2-2.63-.2-1.17-.92-1.9-.73-.72-2.28-.72h0q-1.75 0-3.12 1.05-1.38 1.05-2.2 2.87-.83 1.83-.83 4.08h0v12.05q0 2.1.7 2.85.7.75 2.3.75h0V0q-.8-.05-2.4-.13-1.6-.07-3.3-.07h0q-1.7 0-3.55.07-1.85.08-2.75.13h0v-1.05q1.95 0 2.78-.75.82-.75.82-2.85h0v-15.7q0-2.25-.75-3.33-.75-1.07-2.85-1.07h0v-1.05q1.6.15 3.1.15h0q1.7 0 3.18-.18 1.47-.17 2.72-.52h0v5.45q1.3-3 3.48-4.3 2.17-1.3 4.57-1.3zm15.05 0h0q1.9 0 3.2.52 1.3.53 2.1 1.43h0q.9.95 1.25 2.52.35 1.58.35 3.98h0v13.4q0 2.1.83 2.85.82.75 2.77.75h0V0q-.85-.05-2.65-.13-1.8-.07-3.55-.07h0q-1.7 0-3.32.07-1.63.08-2.48.13h0v-1.05q1.65 0 2.33-.75.67-.75.67-2.85h0v-14.8q0-1.45-.2-2.63-.2-1.17-.95-1.9-.75-.72-2.35-.72h0q-2.6 0-4.37 2.32-1.78 2.33-1.78 5.73h0l-.2-4.15q1.35-3.3 3.63-4.5 2.27-1.2 4.72-1.2zM258.58.35h0q-3.3 0-4.78-1.68-1.47-1.67-1.47-4.27h0q0-2.15 1-3.5 1-1.35 2.57-2.23 1.58-.87 3.35-1.5 1.78-.62 3.35-1.2 1.58-.57 2.6-1.32 1.03-.75 1.03-1.9h0v-3.4q0-1.8-.58-2.88-.57-1.07-1.55-1.52-.97-.45-2.32-.45h0q-1.15 0-2.45.32-1.3.33-2.05 1.28h0q1.1.3 1.82 1.17.73.88.73 2.18h0q0 1.4-.93 2.2-.92.8-2.32.8h0q-1.55 0-2.3-.98-.75-.97-.75-2.27h0q0-1.35.67-2.2.68-.85 1.78-1.6h0q1.2-.8 3.07-1.35 1.88-.55 4.18-.55h0q2.15 0 3.72.47 1.58.48 2.63 1.53h0q1.25 1.15 1.65 2.87.4 1.73.4 4.18h0v13.8q0 1.2.3 1.75.3.55 1.1.55h0q.6 0 1.1-.3.5-.3 1-.7h0l.5.85q-1.05.85-2.13 1.35-1.07.5-2.72.5h0q-2.75 0-3.63-1.3-.87-1.3-.92-3h0q-1.45 2.45-3.43 3.37-1.97.93-4.22.93zm2.75-2.4h0q1.3 0 2.55-.73 1.25-.72 2.35-2.47h0v-9.95q-.7 1.05-2.13 1.7-1.42.65-2.9 1.42-1.47.78-2.52 2.08-1.05 1.3-1.05 3.6h0q0 2.25 1.05 3.3 1.05 1.05 2.65 1.05z" fill="#001f3f"/></svg></svg></svg></svg></g><g transform="translate(132.846)"><svg height="129.827" width="129.827"><svg height="129.827" width="129.827"><path d="M5.89 5.89h118.047v118.047H5.89z"/><path opacity=".5" d="M0 11.781h118.047v118.047H0z"/><g transform="translate(16.829 19.899)"><svg height="90.029" width="96.168"><svg viewBox="5 7.873 90 84.254" height="90.029" width="96.168"><path d="M60.532 7.873c-8.872 0-16.168 6.702-17.122 15.319h-4.058A17.23 17.23 0 0 0 22.234 7.873C12.712 7.873 5 15.588 5 25.106S12.712 42.34 22.234 42.34c8.198 0 15.046-5.733 16.792-13.404h4.709c1.747 7.671 8.595 13.404 16.797 13.404 9.518 0 17.233-7.716 17.233-17.234S70.05 7.873 60.532 7.873M91.17 40.425a3.83 3.83 0 0 0-3.829 3.83v2.461l-10.103 2.887c-.822.234-1.388.987-1.388 1.84v8.6c0 .856.565 1.606 1.388 1.842l10.103 2.887v2.461a3.83 3.83 0 0 0 3.829 3.83c2.113 0 3.83-1.717 3.83-3.83V44.255c0-2.113-1.717-3.83-3.83-3.83m-49.787-2.588c-4.144 6.279-11.22 10.248-19.148 10.248-4.189 0-8.104-1.145-11.489-3.108v18.427a3.83 3.83 0 0 0 3.829 3.83h15.548L10.745 86.697v5.43h5.396l24.793-24.894h.976l24.789 24.894h5.322v-5.513l-19.302-19.38h15.473c2.113 0 3.83-1.715 3.83-3.83V44.977c-3.389 1.963-7.305 3.108-11.489 3.108-7.933 0-15.01-3.968-19.15-10.248" fill="#f7b32b"/></svg></svg></g></svg></svg></g></svg></svg></g></svg></g></svg>