<svg xmlns="http://www.w3.org/2000/svg" width="14.239" height="14.239" viewBox="0 0 14.239 14.239">
  <g id="Path_9" data-name="Path 9" fill="none">
    <path d="M7.12,0A7.12,7.12,0,1,1,0,7.12,7.12,7.12,0,0,1,7.12,0Z" stroke="none"/>
    <path d="M 7.119565486907959 1.999995231628418 C 4.296625137329102 1.999995231628418 1.999995231628418 4.296625137329102 1.999995231628418 7.119565486907959 C 1.999995231628418 9.9425048828125 4.296625137329102 12.2391357421875 7.119565486907959 12.2391357421875 C 9.9425048828125 12.2391357421875 12.2391357421875 9.9425048828125 12.2391357421875 7.119565486907959 C 12.2391357421875 4.296625137329102 9.9425048828125 1.999995231628418 7.119565486907959 1.999995231628418 M 7.119565486907959 -4.76837158203125e-06 C 11.05159568786621 -4.76837158203125e-06 14.2391357421875 3.187535285949707 14.2391357421875 7.119565486907959 C 14.2391357421875 11.05159568786621 11.05159568786621 14.2391357421875 7.119565486907959 14.2391357421875 C 3.187535285949707 14.2391357421875 -4.76837158203125e-06 11.05159568786621 -4.76837158203125e-06 7.119565486907959 C -4.76837158203125e-06 3.187535285949707 3.187535285949707 -4.76837158203125e-06 7.119565486907959 -4.76837158203125e-06 Z" stroke="none" fill="#060623"/>
  </g>
</svg>
