<svg xmlns="http://www.w3.org/2000/svg" width="40.351" height="32.792" viewBox="0 0 40.351 32.792">
  <path id="Path_102" data-name="Path 102" d="M36.721,56.53q.024.533.024,1.071c0,10.94-8.328,23.554-23.553,23.554A23.432,23.432,0,0,1,.5,77.435a16.769,16.769,0,0,0,1.975.116,16.61,16.61,0,0,0,10.282-3.544,8.286,8.286,0,0,1-7.734-5.749,8.284,8.284,0,0,0,3.739-.142A8.284,8.284,0,0,1,2.122,60c0-.035,0-.07,0-.1a8.251,8.251,0,0,0,3.75,1.035A8.287,8.287,0,0,1,3.311,49.878a23.5,23.5,0,0,0,17.062,8.649,8.283,8.283,0,0,1,14.106-7.551,16.552,16.552,0,0,0,5.257-2.009,8.3,8.3,0,0,1-3.639,4.58,16.563,16.563,0,0,0,4.755-1.3A16.83,16.83,0,0,1,36.721,56.53Z" transform="translate(-0.501 -48.363)" fill="#060623"/>
</svg>
