<svg xmlns="http://www.w3.org/2000/svg" width="46.667" height="46.667" xmlns:v="https://vecta.io/nano"><path d="M42.493 9.495l-5.321-5.321a1.01 1.01 0 0 0-1.237-.15L33.16 5.7c-1.362-.761-2.808-1.361-4.309-1.787L28.077.769A1.01 1.01 0 0 0 27.099 0h-7.528a1.01 1.01 0 0 0-.981.769l-.774 3.148c-1.501.425-2.947 1.023-4.309 1.783l-2.775-1.676a1.01 1.01 0 0 0-1.237.15L4.174 9.495a1.01 1.01 0 0 0-.15 1.237l1.675 2.774c-.761 1.362-1.361 2.808-1.787 4.309l-3.143.775a1.01 1.01 0 0 0-.77.981V27.1a1.01 1.01 0 0 0 .769.981l3.148.774c.425 1.499 1.023 2.944 1.783 4.305l-1.675 2.775a1.01 1.01 0 0 0 .15 1.237l5.325 5.321a1.01 1.01 0 0 0 1.237.15l2.775-1.679a20.06 20.06 0 0 0 4.309 1.787l.774 3.148a1.01 1.01 0 0 0 .981.769h7.524a1.01 1.01 0 0 0 .981-.769l.774-3.148c1.501-.426 2.947-1.026 4.309-1.787l2.775 1.679a1.01 1.01 0 0 0 1.237-.15l5.321-5.321a1.01 1.01 0 0 0 .15-1.237l-1.683-2.775a20.06 20.06 0 0 0 1.787-4.309l3.148-.774a1.01 1.01 0 0 0 .769-.981v-7.525a1.01 1.01 0 0 0-.769-.981l-3.148-.774a20.06 20.06 0 0 0-1.787-4.309l1.679-2.775a1.01 1.01 0 0 0-.149-1.237zm-19.16 24.368a10.53 10.53 0 0 1-10.528-10.529 10.53 10.53 0 0 1 10.529-10.529 10.53 10.53 0 0 1 7.445 17.974 10.53 10.53 0 0 1-7.446 3.084z" fill="#060623"/></svg>